<svg xmlns="http://www.w3.org/2000/svg" viewBox="0 0 72 81.28"><defs><style>.cls-1{fill:#0d7bff;}</style></defs><g id="图层_2" data-name="图层 2"><g id="图层_1-2" data-name="图层 1"><path class="cls-1" d="M69,18.12,39,.8a6,6,0,0,0-6,0L3,18.12a6,6,0,0,0-3,5.2V58a6,6,0,0,0,3,5.2L33,80.48a6,6,0,0,0,6,0L69,63.16A6,6,0,0,0,72,58V23.32A6,6,0,0,0,69,18.12ZM36,68.35,12,54.5V44.82L33.08,56.54a6,6,0,0,0,8.16-2.32,6,6,0,0,0-2.32-8.16L12,31.09V26.78L36,12.93,60,26.78v8.79L38.92,23.85a6,6,0,0,0-5.84,10.49L60,49.3v5.2Z"/></g></g></svg>